<svg xmlns="http://www.w3.org/2000/svg" viewBox="0 0 1000 324.68">
  <path fill="#1434CB" d="M651.19,0.31H348.81c-166.41,0-301.5,135.09-301.5,301.5v21.37c0,166.41,135.09,301.5,301.5,301.5h302.38c166.41,0,301.5-135.09,301.5-301.5v-21.37C952.69,135.4,817.6,0.31,651.19,0.31z"/>
  <path fill="#FFFFFF" d="M374.31,152.74h91.11l-42.81,99.8h-30.06L374.31,152.74z"/>
  <path fill="#FFFFFF" d="M576.28,152.74l-38.29,99.8h-32.94l-18.68-71.75c-1.13-4.42-2.11-6.05-5.53-7.91c-5.59-3.16-14.98-6.05-23.21-7.91l0.56-1.13h39.99c5.11,0,9.68,3.4,10.85,9.28l9.96,52.83l24.6-62.11H576.28z"/>
  <path fill="#FFFFFF" d="M617.09,218.05c0.08-24.34-33.67-25.7-33.44-36.55c0.08-3.32,3.24-6.81,10.13-7.67c3.4-0.4,12.84-0.73,23.45,3.8l4.18-19.52c-5.71-2.11-13.08-4.1-22.24-4.1c-23.53,0-40.07,12.52-40.15,30.42c-0.16,13.24,11.82,20.65,20.81,25.05c9.28,4.5,12.36,7.42,12.36,11.42c-0.08,6.13-7.42,8.88-14.23,8.96c-11.98,0.16-18.93-3.24-24.5-5.83l-4.34,20.17c5.59,2.51,15.87,4.74,26.53,4.82C600.98,248.96,617.01,236.6,617.09,218.05z"/>
  <path fill="#FFFFFF" d="M682.79,252.54h22.4l-19.6-99.8h-20.65c-4.66,0-8.56,2.67-10.29,6.81l-36.31,93h25.46l5.03-13.97h31.04L682.79,252.54z M655.94,219.34l12.76-35.18l7.34,35.18H655.94z"/>
  <path fill="#F7A823" d="M329.21,152.74l-43.05,99.8h-25.7l-21.13-81.35c-1.29-5.03-2.43-6.89-6.32-9c-6.4-3.64-16.92-6.97-26.21-9.08l0.65-1.29h45.16c5.75,0,10.94,3.8,12.28,10.45l11.17,59.44l27.59-69.89H329.21z"/>
</svg>
